<?xml version="1.0" encoding="utf-8"?>
<!-- Generator: Adobe Illustrator 22.0.0, SVG Export Plug-In . SVG Version: 6.00 Build 0)  -->
<svg version="1.1" id="Capa_1" xmlns="http://www.w3.org/2000/svg" xmlns:xlink="http://www.w3.org/1999/xlink" x="0px" y="0px"
	 viewBox="0 0 16 16" style="enable-background:new 0 0 16 16;" xml:space="preserve">
<style type="text/css">
	.st0{fill:#FFFFFF;}
	.st1{fill:#2EC618;}
</style>
<circle class="st0" cx="7.8" cy="7.9" r="7.5"/>
<path class="st1" d="M13.6,2.3C12.1,0.8,10.1,0,8,0C3.6,0,0.1,3.6,0.1,7.9c0,1.4,0.4,2.8,1.1,4L0,16l4.2-1.1c1.2,0.6,2.5,1,3.8,1
	l0,0c4.4,0,7.9-3.6,7.9-7.9C15.9,5.8,15.1,3.8,13.6,2.3L13.6,2.3z M8,14.5c-1.2,0-2.3-0.3-3.4-0.9l-0.2-0.1l-2.5,0.7l0.7-2.4
	l-0.2-0.3c-0.7-1-1-2.3-1-3.5c0-3.6,3-6.6,6.6-6.6c1.7,0,3.4,0.7,4.7,1.9c1.2,1.2,1.9,2.9,1.9,4.7C14.6,11.6,11.6,14.5,8,14.5z
	 M11.6,9.6C11.4,9.5,10.4,9,10.2,9c-0.1-0.1-0.3-0.2-0.4,0C9.7,9.2,9.3,9.7,9.2,9.8C9.1,9.9,9,10,8.8,9.9S8,9.6,7.2,8.9
	c-0.6-0.5-1-1.2-1.1-1.4C5.9,7.3,6,7.2,6.1,7.1s0.2-0.2,0.3-0.3s0.1-0.2,0.2-0.3c0.1-0.1,0-0.2,0-0.3C6.6,6,6.2,5,6,4.6
	C5.9,4.2,5.7,4.3,5.6,4.3s-0.2,0-0.4,0C5,4.3,4.8,4.4,4.7,4.5C4.5,4.7,4,5.2,4,6.2s0.7,1.9,0.8,2c0.1,0.1,1.4,2.1,3.4,3
	c0.5,0.2,0.8,0.3,1.1,0.4c0.5,0.2,0.9,0.1,1.2,0.1c0.4-0.1,1.2-0.5,1.3-0.9c0.2-0.5,0.2-0.9,0.2-1C11.9,9.7,11.8,9.7,11.6,9.6z"/>
</svg>
